<?xml version="1.0" encoding="UTF-8" standalone="no"?>
<!DOCTYPE svg PUBLIC "-//W3C//DTD SVG 1.1//EN" "http://www.w3.org/Graphics/SVG/1.1/DTD/svg11.dtd">
<svg width="100%" height="100%" viewBox="0 0 460 92" version="1.1" xmlns="http://www.w3.org/2000/svg" xmlns:xlink="http://www.w3.org/1999/xlink" xml:space="preserve" xmlns:serif="http://www.serif.com/" style="fill-rule:evenodd;clip-rule:evenodd;stroke-linejoin:round;stroke-miterlimit:2;">
    <g transform="matrix(1.42929,0,0,1.42684,-753.545,-165.46)">
        <g>
            <g transform="matrix(73.7523,0,0,73.7523,525.094,166.802)">
                <path d="M0.3,-0.51C0.351,-0.51 0.395,-0.5 0.434,-0.479C0.472,-0.458 0.566,-0.403 0.566,-0.25C0.566,-0.097 0.472,-0.042 0.434,-0.021C0.395,0 0.351,0.01 0.3,0.01C0.25,0.01 0.206,0 0.167,-0.021C0.128,-0.042 0.029,-0.099 0.029,-0.25C0.029,-0.401 0.128,-0.458 0.167,-0.479C0.206,-0.5 0.25,-0.51 0.3,-0.51ZM0.3,-0.382C0.224,-0.382 0.181,-0.326 0.181,-0.25C0.181,-0.174 0.207,-0.118 0.3,-0.118C0.378,-0.118 0.418,-0.179 0.418,-0.25C0.418,-0.321 0.376,-0.382 0.3,-0.382Z" style="fill:rgb(253,203,70);fill-rule:nonzero;"/>
            </g>
            <g transform="matrix(76.076,0,0,69.084,561.769,166.422)">
                <path d="M0.072,0L0.072,-0.719L0.209,-0.719C0.209,-0.719 0.21,-0.498 0.21,-0.471C0.21,-0.458 0.274,-0.566 0.437,-0.517C0.537,-0.487 0.558,-0.36 0.558,-0.313L0.558,0L0.415,0L0.415,-0.26C0.415,-0.329 0.395,-0.394 0.317,-0.394C0.227,-0.394 0.209,-0.307 0.209,-0.264L0.209,0L0.072,0Z" style="fill:rgb(253,203,70);fill-rule:nonzero;"/>
            </g>
            <g transform="matrix(73.7523,0,0,73.7523,601.631,166.802)">
                <path d="M0.072,-0.005L0.072,-0.5L0.207,-0.5L0.206,-0.44C0.245,-0.489 0.328,-0.504 0.363,-0.504C0.479,-0.503 0.521,-0.42 0.524,-0.424C0.566,-0.488 0.687,-0.516 0.773,-0.493C0.883,-0.464 0.898,-0.369 0.898,-0.328L0.898,-0.005L0.757,-0.005L0.757,-0.281C0.757,-0.342 0.709,-0.375 0.662,-0.375C0.577,-0.375 0.557,-0.307 0.557,-0.278L0.557,-0.005L0.409,-0.005L0.409,-0.278C0.409,-0.338 0.38,-0.374 0.316,-0.374C0.226,-0.374 0.214,-0.312 0.214,-0.275L0.214,-0.005L0.072,-0.005Z" style="fill:rgb(253,203,70);fill-rule:nonzero;"/>
            </g>
            <g transform="matrix(73.7523,0,0,73.7523,665.856,167.002)">
                <path d="M0.563,-0.5L0.34,0.031C0.319,0.077 0.305,0.103 0.291,0.116C0.161,0.236 0.017,0.142 0.001,0.132L0.052,0.032C0.184,0.116 0.216,0 0.216,0L0.005,-0.5L0.151,-0.5L0.289,-0.168L0.427,-0.5L0.563,-0.5Z" style="fill:rgb(253,203,70);fill-rule:nonzero;"/>
            </g>
            <g transform="matrix(73.7523,0,0,73.7523,766.484,166.802)">
                <path d="M0.3,-0.51C0.351,-0.51 0.395,-0.5 0.434,-0.479C0.472,-0.458 0.566,-0.403 0.566,-0.25C0.566,-0.097 0.472,-0.042 0.434,-0.021C0.395,0 0.351,0.01 0.3,0.01C0.25,0.01 0.206,0 0.167,-0.021C0.128,-0.042 0.029,-0.099 0.029,-0.25C0.029,-0.401 0.128,-0.458 0.167,-0.479C0.206,-0.5 0.25,-0.51 0.3,-0.51ZM0.3,-0.382C0.274,-0.382 0.253,-0.376 0.235,-0.365C0.218,-0.353 0.181,-0.326 0.181,-0.25C0.181,-0.174 0.218,-0.147 0.235,-0.135C0.253,-0.123 0.275,-0.118 0.3,-0.118C0.325,-0.118 0.346,-0.123 0.363,-0.135C0.381,-0.147 0.418,-0.179 0.418,-0.25C0.418,-0.321 0.381,-0.353 0.363,-0.365C0.346,-0.376 0.324,-0.382 0.3,-0.382Z" style="fill:rgb(253,203,70);fill-rule:nonzero;"/>
            </g>
            <g transform="matrix(73.7523,0,0,73.7523,725.695,166.802)">
                <path d="M0.3,-0.51C0.351,-0.51 0.395,-0.5 0.434,-0.479C0.472,-0.458 0.566,-0.403 0.566,-0.25C0.566,-0.097 0.472,-0.042 0.434,-0.021C0.395,0 0.351,0.01 0.3,0.01C0.25,0.01 0.206,0 0.167,-0.021C0.128,-0.042 0.029,-0.099 0.029,-0.25C0.029,-0.401 0.128,-0.458 0.167,-0.479C0.206,-0.5 0.25,-0.51 0.3,-0.51ZM0.3,-0.382C0.274,-0.382 0.253,-0.376 0.235,-0.365C0.218,-0.353 0.181,-0.326 0.181,-0.25C0.181,-0.174 0.218,-0.147 0.235,-0.135C0.253,-0.123 0.275,-0.118 0.3,-0.118C0.325,-0.118 0.346,-0.123 0.363,-0.135C0.381,-0.147 0.418,-0.179 0.418,-0.25C0.418,-0.321 0.381,-0.353 0.363,-0.365C0.346,-0.376 0.324,-0.382 0.3,-0.382Z" style="fill:rgb(253,203,70);fill-rule:nonzero;"/>
            </g>
            <g transform="matrix(73.7523,0,0,73.7523,701.727,166.484)">
                <path d="M0.14,-0.621C0.244,-0.734 0.398,-0.664 0.407,-0.657L0.366,-0.558C0.235,-0.613 0.243,-0.481 0.243,-0.481L0.252,-0.454L0.252,0L0.105,-0.003L0.105,-0.482C0.105,-0.539 0.106,-0.585 0.14,-0.621ZM0.375,-0.482L0.374,-0.371L0.021,-0.371L0.022,-0.482L0.375,-0.482Z" style="fill:rgb(253,203,70);fill-rule:nonzero;"/>
            </g>
            <g transform="matrix(77.8783,0,0,69.7954,805.636,166.417)">
                <path d="M0.423,-0.059C0.346,0.056 0.138,0.025 0.078,-0.114C0.061,-0.154 0.047,-0.195 0.047,-0.249C0.047,-0.304 0.057,-0.358 0.076,-0.397C0.095,-0.436 0.122,-0.465 0.155,-0.486C0.305,-0.583 0.418,-0.471 0.418,-0.471L0.418,-0.719L0.555,-0.719L0.555,0L0.423,0L0.423,-0.059ZM0.302,-0.117C0.412,-0.123 0.418,-0.221 0.418,-0.254C0.418,-0.284 0.408,-0.4 0.303,-0.401C0.205,-0.402 0.185,-0.3 0.185,-0.25C0.185,-0.199 0.221,-0.113 0.302,-0.117Z" style="fill:rgb(253,203,70);fill-rule:nonzero;"/>
            </g>
        </g>
    </g>
</svg>
